<svg xmlns="http://www.w3.org/2000/svg" width="600" height="400" viewBox="0 0 600 400"><rect width="100%" height="100%" fill="#DDDDDD"/><path fill="#999999" d="M126.77 168.375h16.87v69.77h-16.87zm19.18-20.33q0 2.18-.89 4.08-.88 1.9-2.34 3.33t-3.44 2.28q-1.97.85-4.21.85-2.18 0-4.12-.85-1.93-.85-3.36-2.28t-2.28-3.33-.85-4.08q0-2.24.85-4.22.85-1.97 2.28-3.4 1.43-1.42 3.36-2.27 1.94-.85 4.12-.85 2.24 0 4.21.85 1.98.85 3.44 2.27 1.46 1.43 2.34 3.4.89 1.98.89 4.22m31.62 90.1h-16.8v-69.77h10.27q3.26 0 4.28 3.06l1.09 5.17q1.84-2.04 3.84-3.74 2.01-1.7 4.29-2.92 2.28-1.23 4.89-1.94 2.62-.72 5.75-.72 6.6 0 10.85 3.57t6.35 9.49q1.64-3.47 4.08-5.95 2.45-2.48 5.38-4.05 2.92-1.56 6.22-2.31t6.63-.75q5.78 0 10.27 1.77 4.48 1.77 7.54 5.17t4.66 8.3q1.6 4.89 1.6 11.22v44.4h-16.8v-44.4q0-6.67-2.92-10.03-2.92-3.37-8.57-3.37-2.58 0-4.79.88-2.21.89-3.88 2.55-1.66 1.67-2.62 4.19-.95 2.51-.95 5.78v44.4h-16.86v-44.4q0-7.01-2.82-10.2-2.83-3.2-8.27-3.2-3.67 0-6.83 1.8t-5.88 4.93zm133.96-18.02v-11.76q-7.28.34-12.24 1.25-4.97.92-7.96 2.35t-4.28 3.33q-1.29 1.91-1.29 4.15 0 4.42 2.61 6.32 2.62 1.91 6.84 1.91 5.17 0 8.94-1.87t7.38-5.68m-35.5-36.65-2.99-5.37q12.04-11.02 28.97-11.02 6.12 0 10.95 2.01 4.82 2 8.16 5.57 3.33 3.57 5.06 8.54 1.74 4.96 1.74 10.88v44.06h-7.62q-2.38 0-3.67-.71-1.29-.72-2.04-2.89l-1.5-5.04q-2.65 2.38-5.17 4.19-2.51 1.8-5.23 3.02-2.72 1.23-5.82 1.87-3.09.65-6.83.65-4.42 0-8.16-1.19t-6.46-3.57-4.22-5.92q-1.49-3.53-1.49-8.23 0-2.65.88-5.27.89-2.61 2.89-4.99 2.01-2.38 5.2-4.49 3.2-2.11 7.86-3.67 4.66-1.57 10.84-2.55 6.19-.99 14.15-1.19v-4.08q0-7.01-2.99-10.37-3-3.37-8.64-3.37-4.08 0-6.77.95-2.68.95-4.72 2.14t-3.71 2.15q-1.66.95-3.7.95-1.77 0-3-.92-1.22-.92-1.97-2.14m93.16 18.09q3.13 0 5.44-.85t3.84-2.35 2.32-3.6q.78-2.11.78-4.63 0-5.17-3.1-8.19-3.09-3.03-9.28-3.03t-9.28 3.03q-3.09 3.02-3.09 8.19 0 2.45.78 4.56t2.31 3.64 3.88 2.38q2.34.85 5.4.85m18.97 39.71q0-2.04-1.22-3.33-1.22-1.3-3.33-2.01t-4.93-1.05-5.99-.51q-3.16-.17-6.52-.31-3.37-.14-6.57-.54-2.78 1.56-4.52 3.67-1.73 2.11-1.73 4.89 0 1.84.92 3.44.91 1.6 2.92 2.75 2.01 1.16 5.2 1.8 3.2.65 7.82.65 4.69 0 8.09-.71 3.4-.72 5.61-1.98 2.21-1.25 3.23-2.99 1.02-1.73 1.02-3.77m-3.33-70.52h20.06v6.26q0 2.99-3.6 3.67l-6.26 1.16q1.43 3.6 1.43 7.88 0 5.17-2.07 9.35-2.08 4.19-5.75 7.11t-8.67 4.52-10.78 1.6q-2.04 0-3.94-.2-1.91-.21-3.74-.55-3.27 1.97-3.27 4.42 0 2.11 1.94 3.1 1.94.98 5.14 1.39 3.19.41 7.27.51t8.37.44q4.28.34 8.36 1.19t7.28 2.69q3.19 1.83 5.13 5 1.94 3.16 1.94 8.12 0 4.63-2.28 8.98t-6.6 7.75q-4.31 3.4-10.6 5.47-6.29 2.08-14.32 2.08-7.89 0-13.73-1.53-5.85-1.53-9.73-4.08-3.87-2.55-5.78-5.88-1.9-3.34-1.9-6.94 0-4.9 2.96-8.19 2.95-3.3 8.12-5.27-2.79-1.43-4.42-3.81t-1.63-6.26q0-1.56.58-3.23.58-1.66 1.7-3.3 1.12-1.63 2.82-3.09t4.01-2.62q-5.3-2.85-8.33-7.61-3.02-4.76-3.02-11.16 0-5.16 2.07-9.35 2.07-4.18 5.78-7.14 3.71-2.95 8.77-4.52 5.07-1.56 11.05-1.56 4.49 0 8.43.92 3.95.91 7.21 2.68m43.93 24.48h31.69q0-3.26-.92-6.15t-2.75-5.07q-1.84-2.17-4.66-3.43t-6.56-1.26q-7.28 0-11.46 4.15t-5.34 11.76m42.84 10.13h-43.18q.41 5.38 1.9 9.29 1.5 3.91 3.95 6.46t5.81 3.8q3.37 1.26 7.45 1.26t7.04-.95q2.95-.95 5.16-2.11 2.21-1.15 3.88-2.11 1.67-.95 3.23-.95 2.11 0 3.13 1.57l4.83 6.12q-2.79 3.26-6.26 5.47t-7.24 3.54q-3.78 1.32-7.69 1.87-3.91.54-7.58.54-7.27 0-13.53-2.41-6.26-2.42-10.88-7.14-4.62-4.73-7.28-11.7-2.65-6.97-2.65-16.15 0-7.14 2.31-13.43 2.32-6.29 6.63-10.95 4.32-4.66 10.54-7.38 6.23-2.72 14.05-2.72 6.59 0 12.17 2.11 5.57 2.11 9.59 6.16 4.01 4.04 6.29 9.92 2.27 5.89 2.27 13.43 0 3.81-.81 5.14-.82 1.32-3.13 1.32"/></svg>